<svg data-v-d3f97b9e="" xmlns="http://www.w3.org/2000/svg" viewBox="0 0 252.10525735403442 60"><!----><!----><!----><g data-v-d3f97b9e="" id="63c30273-1af5-4b6f-bbc5-084e9ffb60e5" fill="white" transform="matrix(4.784689009770447,0,0,4.784689009770447,-2.296649545305371,-17.70334884904667)"><path d="M0.48 9.18C0.48 11.98 2.73 14.14 5.66 14.15C6.44 15.47 7.55 16.24 8.78 16.24C9.69 16.24 10.68 15.83 11.44 15.16L10.78 14C10.14 14.50 9.49 14.81 8.97 14.81C8.41 14.81 7.87 14.48 7.34 13.90C9.42 13.26 10.86 11.42 10.86 9.18C10.86 6.38 8.60 4.24 5.67 4.24C2.74 4.24 0.48 6.37 0.48 9.18ZM2.16 9.18C2.16 7.24 3.75 5.73 5.68 5.73C7.60 5.73 9.17 7.24 9.17 9.18C9.17 11.13 7.60 12.67 5.68 12.67C3.77 12.67 2.16 11.13 2.16 9.18ZM12.04 10.37C12.04 12.61 13.55 14.14 15.85 14.14C17.14 14.14 18.20 13.68 18.93 12.88L18.07 11.97C17.53 12.53 16.79 12.84 15.97 12.84C14.80 12.84 13.92 12.12 13.66 10.98L19.29 10.98C19.49 8.29 18.42 6.58 15.81 6.58C13.59 6.59 12.04 8.12 12.04 10.37ZM13.64 9.80C13.82 8.61 14.64 7.87 15.82 7.87C17.04 7.87 17.84 8.60 17.89 9.80ZM19.80 6.64L22.68 14.08L24.35 14.08L27.20 6.64L25.59 6.64L23.55 12.50L21.48 6.64ZM27.62 10.37C27.62 12.61 29.13 14.14 31.43 14.14C32.72 14.14 33.78 13.68 34.51 12.88L33.66 11.97C33.11 12.53 32.37 12.84 31.56 12.84C30.38 12.84 29.50 12.12 29.25 10.98L34.87 10.98C35.07 8.29 34.01 6.58 31.39 6.58C29.18 6.59 27.62 8.12 27.62 10.37ZM29.22 9.80C29.40 8.61 30.23 7.87 31.40 7.87C32.62 7.87 33.42 8.60 33.47 9.80ZM35.85 10.33C35.85 12.60 37.28 14.15 39.42 14.15C40.61 14.15 41.51 13.68 42.04 12.81L42.04 14.08L43.65 14.08L43.65 3.70L42.04 3.70L42.04 7.92C41.50 7.06 40.60 6.57 39.40 6.57C37.30 6.57 35.85 8.09 35.85 10.33ZM37.46 10.39C37.48 8.96 38.42 7.94 39.76 7.94C41.10 7.94 42.04 8.95 42.04 10.39C42.04 11.80 41.10 12.81 39.76 12.81C38.40 12.81 37.48 11.80 37.46 10.39ZM45.40 10.36C45.40 12.60 46.98 14.14 49.29 14.14C51.59 14.14 53.17 12.60 53.17 10.36C53.17 8.11 51.59 6.58 49.29 6.58C46.98 6.58 45.40 8.11 45.40 10.36ZM47.01 10.37C47.01 8.95 47.95 7.97 49.29 7.97C50.62 7.97 51.56 8.95 51.56 10.37C51.56 11.82 50.62 12.80 49.29 12.80C47.95 12.80 47.01 11.82 47.01 10.37Z"></path></g><!----><!----></svg>